<svg width="600" height="800" xmlns="http://www.w3.org/2000/svg">
  <!-- Background gradient -->
  <defs>
    <linearGradient id="filmGradient" x1="0%" y1="0%" x2="100%" y2="100%">
      <stop offset="0%" stop-color="#1a1a1a" />
      <stop offset="100%" stop-color="#333333" />
    </linearGradient>
  </defs>
  
  <!-- Base background -->
  <rect width="100%" height="100%" fill="url(#filmGradient)" />
  
  <!-- Film strip elements -->
  <g fill="none" stroke="#ffffff" stroke-width="2">
    <!-- Film strip top -->
    <rect x="50" y="50" width="500" height="100" />
    <rect x="75" y="75" width="25" height="50" />
    <rect x="125" y="75" width="25" height="50" />
    <rect x="175" y="75" width="25" height="50" />
    <rect x="225" y="75" width="25" height="50" />
    <rect x="275" y="75" width="25" height="50" />
    <rect x="325" y="75" width="25" height="50" />
    <rect x="375" y="75" width="25" height="50" />
    <rect x="425" y="75" width="25" height="50" />
    <rect x="475" y="75" width="25" height="50" />
    
    <!-- Film strip bottom -->
    <rect x="50" y="650" width="500" height="100" />
    <rect x="75" y="675" width="25" height="50" />
    <rect x="125" y="675" width="25" height="50" />
    <rect x="175" y="675" width="25" height="50" />
    <rect x="225" y="675" width="25" height="50" />
    <rect x="275" y="675" width="25" height="50" />
    <rect x="325" y="675" width="25" height="50" />
    <rect x="375" y="675" width="25" height="50" />
    <rect x="425" y="675" width="25" height="50" />
    <rect x="475" y="675" width="25" height="50" />
  </g>
  
  <!-- Movie elements -->
  <g opacity="0.7">
    <!-- Clapperboard -->
    <g transform="translate(150, 250)" stroke="#ffffff" stroke-width="2" fill="none">
      <rect x="0" y="0" width="300" height="200" />
      <line x1="0" y1="50" x2="300" y2="30" />
      <line x1="0" y1="100" x2="300" y2="80" />
      <line x1="0" y1="150" x2="300" y2="130" />
      <line x1="50" y1="0" x2="40" y2="200" />
      <line x1="100" y1="0" x2="90" y2="200" />
      <line x1="150" y1="0" x2="140" y2="200" />
      <line x1="200" y1="0" x2="190" y2="200" />
      <line x1="250" y1="0" x2="240" y2="200" />
    </g>
    
    <!-- Film reel -->
    <g transform="translate(300, 500)">
      <circle cx="0" cy="0" r="80" fill="none" stroke="#ffffff" stroke-width="2" />
      <circle cx="0" cy="0" r="20" fill="none" stroke="#ffffff" stroke-width="2" />
      <circle cx="0" cy="-60" r="10" fill="none" stroke="#ffffff" stroke-width="2" />
      <circle cx="42" cy="-42" r="10" fill="none" stroke="#ffffff" stroke-width="2" />
      <circle cx="60" cy="0" r="10" fill="none" stroke="#ffffff" stroke-width="2" />
      <circle cx="42" cy="42" r="10" fill="none" stroke="#ffffff" stroke-width="2" />
      <circle cx="0" cy="60" r="10" fill="none" stroke="#ffffff" stroke-width="2" />
      <circle cx="-42" cy="42" r="10" fill="none" stroke="#ffffff" stroke-width="2" />
      <circle cx="-60" cy="0" r="10" fill="none" stroke="#ffffff" stroke-width="2" />
      <circle cx="-42" cy="-42" r="10" fill="none" stroke="#ffffff" stroke-width="2" />
    </g>
  </g>
  
  <!-- Text -->
  <text x="300" y="400" font-family="'Playfair Display', serif" font-size="60" fill="#ffffff" text-anchor="middle" dominant-baseline="middle">Film</text>
</svg>