<svg version="1.2" xmlns="http://www.w3.org/2000/svg" viewBox="0 0 800 1200" width="800" height="1200"><style>tspan{white-space:pre}.a{fill:#1a1a1a}.b{fill:#f7c61d}.c{font-size: 80px;fill: #000000;font-family: "Impact"}.d{font-size: 24px;fill: #000000;font-family: "Arial"}.e{fill:none;stroke:#fff;stroke-width:5}</style><path fill-rule="evenodd" class="a" d="m0 0h800v1200h-800z"/><path fill-rule="evenodd" class="b" d="m100 200h600v800h-600z"/><path fill-rule="evenodd" d="m200 400h100c5.5 0 10 4.5 10 10v280c0 5.5-4.5 10-10 10h-100c-5.5 0-10-4.5-10-10v-280c0-5.5 4.5-10 10-10z"/><path fill-rule="evenodd" d="m250 420c-27.7 0-50-22.4-50-50 0-27.6 22.3-50 50-50 27.6 0 50 22.4 50 50 0 27.6-22.4 50-50 50z"/><path fill-rule="evenodd" d="m210 700h80v150h-80z"/><path fill-rule="evenodd" d="m190 550h30v100h-30z"/><path fill-rule="evenodd" d="m280 550h30v100h-30z"/><path fill-rule="evenodd" d="m500 400h100c5.5 0 10 4.5 10 10v280c0 5.5-4.5 10-10 10h-100c-5.5 0-10-4.5-10-10v-280c0-5.5 4.5-10 10-10z"/><path fill-rule="evenodd" d="m550 420c-27.6 0-50-22.4-50-50 0-27.6 22.4-50 50-50 27.6 0 50 22.4 50 50 0 27.6-22.4 50-50 50z"/><path fill-rule="evenodd" d="m510 700h80v150h-80z"/><path fill-rule="evenodd" d="m490 550h30v100h-30z"/><path fill-rule="evenodd" d="m580 550h30v100h-30z"/><text style="transform:matrix(1,0,0,1,400,200)" ><tspan x="-72.6" y="0" class="c">PULP
</tspan></text><text style="transform:matrix(1,0,0,1,400,280)" ><tspan x="-108.2" y="0" class="c">FICTION
</tspan></text><text style="transform:matrix(1,0,0,1,400,1050)" ><tspan x="-151.3" y="0" class="d">Tarantino'nun Kült Klasiği
</tspan></text><path fill-rule="evenodd" class="e" d="m80 180h640v840h-640z"/></svg>