<svg width="600" height="600" xmlns="http://www.w3.org/2000/svg">
  <!-- Background gradient -->
  <defs>
    <linearGradient id="professorGradient" x1="0%" y1="0%" x2="100%" y2="100%">
      <stop offset="0%" stop-color="#1a1a1a" />
      <stop offset="100%" stop-color="#333333" />
    </linearGradient>
  </defs>
  
  <!-- Base background -->
  <circle cx="300" cy="300" r="300" fill="url(#professorGradient)" />
  
  <!-- Professor silhouette -->
  <g transform="translate(300, 300)">
    <!-- Head and face -->
    <circle cx="0" cy="-100" r="100" fill="#ffffff" opacity="0.1" />
    
    <!-- Glasses -->
    <g fill="none" stroke="#ffffff" stroke-width="3">
      <circle cx="-30" cy="-100" r="25" />
      <circle cx="30" cy="-100" r="25" />
      <line x1="-5" y1="-100" x2="5" y2="-100" />
    </g>
    
    <!-- Beard -->
    <path d="M -60,-80 C -50,-40 -30,-20 0,-20 C 30,-20 50,-40 60,-80" fill="#ffffff" opacity="0.1" />
    
    <!-- Hair -->
    <path d="M -80,-150 C -70,-180 -30,-200 0,-200 C 30,-200 70,-180 80,-150" fill="#ffffff" opacity="0.1" />
    
    <!-- Shoulders and body (partial) -->
    <path d="M -100,-20 C -80,0 -40,20 0,20 C 40,20 80,0 100,-20" fill="#ffffff" opacity="0.1" />
  </g>
  
  <!-- Books in background -->
  <g transform="translate(300, 400)" opacity="0.3">
    <!-- Book stack left -->
    <g transform="translate(-150, -50)">
      <rect x="-40" y="-120" width="80" height="20" fill="#c5a880" />
      <rect x="-35" y="-100" width="70" height="15" fill="#d72638" />
      <rect x="-38" y="-85" width="76" height="25" fill="#ffffff" />
      <rect x="-30" y="-60" width="60" height="10" fill="#c5a880" />
      <rect x="-40" y="-50" width="80" height="20" fill="#d72638" />
    </g>
    
    <!-- Book stack right -->
    <g transform="translate(150, -50)">
      <rect x="-40" y="-120" width="80" height="20" fill="#d72638" />
      <rect x="-35" y="-100" width="70" height="15" fill="#ffffff" />
      <rect x="-38" y="-85" width="76" height="25" fill="#c5a880" />
      <rect x="-30" y="-60" width="60" height="10" fill="#d72638" />
      <rect x="-40" y="-50" width="80" height="20" fill="#ffffff" />
    </g>
  </g>
  
  <!-- Decorative elements -->
  <g fill="none" stroke="#c5a880" stroke-width="1" opacity="0.5">
    <circle cx="300" cy="300" r="250" />
    <circle cx="300" cy="300" r="260" />
    <circle cx="300" cy="300" r="270" />
  </g>
  
  <!-- Signature line -->
  <g transform="translate(300, 500)">
    <path d="M -100,0 C -50,-20 0,20 50,0 C 100,-20 150,0 200,20" fill="none" stroke="#ffffff" stroke-width="2" opacity="0.5" />
  </g>
</svg>